<svg width="150" height="100" viewBox="0 0 20 30" fill="none" xmlns="http://www.w3.org/2000/svg">
<g id="logo-gradient-blue-jira">
<g id="Icon">
<path id="Vector" d="M24.664 3H12.2603C12.2603 5.99443 14.7697 8.43176 17.8527 8.43176H20.147V10.5557C20.147 13.5501 22.6565 15.9875 25.7395 15.9875V4.04457C25.7395 3.45265 25.2735 3 24.664 3Z" fill="#ffff"/>
<path id="Vector_2" d="M18.5339 8.98877H6.13013C6.13013 11.9832 8.63956 14.4205 11.7226 14.4205H14.0169V16.5793C14.0169 19.5737 16.5264 22.0111 19.6094 22.0111V10.0333C19.6094 9.47623 19.1433 8.98877 18.5339 8.98877Z" fill="url(#paint0_linear)"/>
<path id="Vector_3" d="M12.4038 15.0125H0C0 18.0069 2.50943 20.4442 5.59245 20.4442H7.88679V22.5682C7.88679 25.5626 10.3962 27.9999 13.4792 27.9999V16.057C13.4792 15.4651 12.9774 15.0125 12.4038 15.0125Z" fill="url(#paint1_linear)"/>
</g>
</g>
<defs>
<linearGradient id="paint0_linear" x1="19.3455" y1="9.01882" x2="14.2302" y2="14.45" gradientUnits="userSpaceOnUse">
<stop offset="0.176" stop-color="#fff"/>
<stop offset="1" stop-color="#eee"/>
</linearGradient>
<linearGradient id="paint1_linear" x1="13.5601" y1="15.0525" x2="7.63562" y2="20.9874" gradientUnits="userSpaceOnUse">
<stop offset="0.176" stop-color="#fff"/>
<stop offset="1" stop-color="#eee"/>
</linearGradient>
</defs>
</svg>
